<?xml version="1.0" encoding="utf-8"?><svg xmlns="http://www.w3.org/2000/svg" xmlns:xlink="http://www.w3.org/1999/xlink"><symbol viewBox="0 0 512.02 512.02" id="cotton" xmlns="http://www.w3.org/2000/svg"><path d="M270.531 394.94c26.705 0 52.717-10.56 71.813-29.656 23.918-23.917 34.296-58.052 27.764-91.309-.909-4.629-4.447-8.203-9.014-9.105-19.256-3.806-38.864-2.029-56.971 5.124-6.226-23.951-20.904-44.638-41.662-58.578a11.52 11.52 0 00-12.899-.002c-20.76 13.942-35.438 34.629-41.664 58.58-18.109-7.154-37.712-8.932-56.972-5.124-4.567.902-8.105 4.477-9.014 9.104-5.011 25.512-.06 51.535 13.309 73.071-52.64-6.347-93.571-51.289-93.571-105.616 0-58.658 47.722-106.38 106.38-106.38a7.5 7.5 0 000-15 120.999 120.999 0 00-34.319 4.949c2.083-19.789 8.898-38.737 20.016-55.341a7.499 7.499 0 00-2.059-10.404 7.5 7.5 0 00-10.405 2.059c-13.849 20.682-21.775 44.596-23.064 69.444-42.149 19.052-71.55 61.494-71.55 110.674 0 66.687 54.05 120.979 120.639 121.38 19.663 21.049 47.749 32.725 76.326 32.102-3.157 19.957-.673 39.516 7.364 57.097 8.477 18.535 22.424 34.006 40.333 44.74 17.916 10.738 38.565 15.97 59.582 15.196a7.5 7.5 0 007.22-7.77 7.487 7.487 0 00-7.77-7.221c-18.196.666-35.94-3.854-51.321-13.072-15.297-9.168-27.194-22.348-34.403-38.111-7.3-15.97-9.189-33.273-5.675-51.508 3.865.447 7.733.677 11.587.677zm-13.356-16.043a7.523 7.523 0 00-2.33 0c-27.239 4.284-55.114-4.77-74.563-24.221-19.83-19.83-28.736-47.911-24.068-75.528 16.837-2.852 33.904-.726 49.508 6.194a11.385 11.385 0 009.803-.262 11.543 11.543 0 006.07-7.877c4.582-21.094 16.765-39.479 34.415-52.015 17.648 12.535 29.833 30.921 34.415 52.016a11.546 11.546 0 006.07 7.876 11.389 11.389 0 009.805.261c15.603-6.916 32.668-9.046 49.506-6.193 4.668 27.617-4.238 55.699-24.068 75.528-19.449 19.45-47.325 28.507-74.563 24.221zm136.638-248.145c-1.779-34.522-16.222-66.717-41.003-91.107C326.835 14.079 292.458 0 256.01 0c-35.084 0-68.521 13.179-94.153 37.107a7.5 7.5 0 1010.237 10.965C194.938 26.745 224.74 15 256.01 15c32.486 0 63.126 12.549 86.278 35.335 20.516 20.193 33.082 46.386 36.037 74.669a121 121 0 00-34.335-4.954 7.5 7.5 0 000 15c58.658 0 106.38 47.722 106.38 106.38 0 45.705-29.073 86.226-72.345 100.83a7.5 7.5 0 00-4.707 9.505c1.341 3.972 5.666 6.004 9.504 4.708 49.375-16.665 82.548-62.896 82.548-115.043 0-49.183-29.405-91.628-71.557-110.678z"/></symbol><symbol viewBox="0 0 395.947 395.947" id="document" xmlns="http://www.w3.org/2000/svg"><path d="M150.187 0H54.613a6.83 6.83 0 00-6.827 6.827V389.12a6.83 6.83 0 006.827 6.827h95.573a6.83 6.83 0 006.827-6.827V6.827A6.829 6.829 0 00150.187 0zm-6.827 382.293H61.44V13.653h81.92v368.64z"/><path d="M122.88 286.72H81.92c-3.768 0-6.827 3.058-6.827 6.827s3.058 6.827 6.827 6.827h40.96c3.768 0 6.827-3.058 6.827-6.827s-3.059-6.827-6.827-6.827zm0 27.307H81.92c-3.768 0-6.827 3.058-6.827 6.827s3.058 6.827 6.827 6.827h40.96c3.768 0 6.827-3.058 6.827-6.827s-3.059-6.827-6.827-6.827zm0 27.306H81.92a6.83 6.83 0 00-6.827 6.827 6.83 6.83 0 006.827 6.827h40.96a6.83 6.83 0 006.827-6.827 6.83 6.83 0 00-6.827-6.827zM102.4 47.787c-15.056 0-27.307 12.25-27.307 27.307S87.344 102.4 102.4 102.4s27.307-12.25 27.307-27.307-12.251-27.306-27.307-27.306zm0 40.96c-7.53 0-13.653-6.123-13.653-13.653s6.124-13.653 13.653-13.653c7.53 0 13.653 6.124 13.653 13.653 0 7.529-6.123 13.653-13.653 13.653zM245.76 0h-95.573a6.83 6.83 0 00-6.827 6.827V389.12a6.83 6.83 0 006.827 6.827h95.573a6.83 6.83 0 006.827-6.827V6.827A6.83 6.83 0 00245.76 0zm-6.827 382.293h-81.92V13.653h81.92v368.64z"/><path d="M218.453 286.72h-40.96c-3.768 0-6.827 3.058-6.827 6.827s3.058 6.827 6.827 6.827h40.96c3.768 0 6.827-3.058 6.827-6.827s-3.058-6.827-6.827-6.827zm0 27.307h-40.96c-3.768 0-6.827 3.058-6.827 6.827s3.058 6.827 6.827 6.827h40.96c3.768 0 6.827-3.058 6.827-6.827s-3.058-6.827-6.827-6.827zm0 27.306h-40.96a6.83 6.83 0 00-6.827 6.827 6.83 6.83 0 006.827 6.827h40.96a6.83 6.83 0 006.827-6.827 6.83 6.83 0 00-6.827-6.827zm-20.48-293.546c-15.056 0-27.307 12.25-27.307 27.307s12.25 27.307 27.307 27.307 27.307-12.25 27.307-27.307-12.25-27.307-27.307-27.307zm0 40.96c-7.53 0-13.653-6.123-13.653-13.653s6.124-13.653 13.653-13.653c7.53 0 13.653 6.124 13.653 13.653.001 7.529-6.123 13.653-13.653 13.653zM341.333 0H245.76a6.83 6.83 0 00-6.827 6.827V389.12a6.83 6.83 0 006.827 6.827h95.573a6.83 6.83 0 006.827-6.827V6.827A6.829 6.829 0 00341.333 0zm-6.826 382.293h-81.92V13.653h81.92v368.64z"/><path d="M314.027 286.72h-40.96c-3.768 0-6.827 3.058-6.827 6.827s3.058 6.827 6.827 6.827h40.96c3.768 0 6.827-3.058 6.827-6.827s-3.059-6.827-6.827-6.827zm0 27.307h-40.96c-3.768 0-6.827 3.058-6.827 6.827s3.058 6.827 6.827 6.827h40.96c3.768 0 6.827-3.058 6.827-6.827s-3.059-6.827-6.827-6.827zm0 27.306h-40.96a6.83 6.83 0 00-6.827 6.827 6.83 6.83 0 006.827 6.827h40.96a6.83 6.83 0 006.827-6.827 6.83 6.83 0 00-6.827-6.827zm-20.48-293.546c-15.056 0-27.307 12.25-27.307 27.307s12.25 27.307 27.307 27.307c15.056 0 27.307-12.25 27.307-27.307s-12.251-27.307-27.307-27.307zm0 40.96c-7.53 0-13.653-6.123-13.653-13.653s6.124-13.653 13.653-13.653c7.53 0 13.653 6.124 13.653 13.653 0 7.529-6.124 13.653-13.653 13.653zm95.573 293.546H6.827A6.83 6.83 0 000 389.12a6.83 6.83 0 006.827 6.827H389.12a6.83 6.83 0 006.827-6.827 6.83 6.83 0 00-6.827-6.827z"/></symbol><symbol viewBox="0 0 64 64" id="infrastructure" xmlns="http://www.w3.org/2000/svg"><path d="M32 23c-4.962 0-9 4.038-9 9s4.038 9 9 9 9-4.038 9-9-4.038-9-9-9zm0 16c-3.86 0-7-3.14-7-7s3.14-7 7-7 7 3.14 7 7-3.14 7-7 7z"/><path d="M54 17h8a1 1 0 001-1V8a1 1 0 00-1-1h-8a1 1 0 00-1 1v3h-3a1 1 0 00-1 1v19h-1v-1a1 1 0 00-.868-.991l-2.565-.342a12.812 12.812 0 00-1.328-3.192l1.576-2.06a1 1 0 00-.087-1.314l-2.829-2.829a.998.998 0 00-1.314-.087l-2.06 1.576a12.888 12.888 0 00-3.192-1.328l-.342-2.565A1 1 0 0034 16h-4a1 1 0 00-.991.868l-.342 2.565c-1.116.295-2.185.74-3.192 1.328l-2.06-1.576a1 1 0 00-1.314.087l-2.829 2.829a1 1 0 00-.087 1.314l1.576 2.06a12.888 12.888 0 00-1.328 3.192l-2.565.342A1 1 0 0016 30v1h-1V12a1 1 0 00-1-1h-3V8a1 1 0 00-1-1H2a1 1 0 00-1 1v8a1 1 0 001 1h8a1 1 0 001-1v-3h2v18h-2v-3a1 1 0 00-1-1H2a1 1 0 00-1 1v8a1 1 0 001 1h8a1 1 0 001-1v-3h2v18h-2v-3a1 1 0 00-1-1H2a1 1 0 00-1 1v8a1 1 0 001 1h8a1 1 0 001-1v-3h3a1 1 0 001-1V33h1v1a1 1 0 00.868.991l2.565.342c.295 1.116.74 2.185 1.328 3.192l-1.576 2.06a1 1 0 00.087 1.314l2.829 2.829a1 1 0 001.314.087l2.06-1.576a12.888 12.888 0 003.192 1.328l.342 2.565A1 1 0 0030 48h4a1 1 0 00.991-.868l.342-2.565a12.812 12.812 0 003.192-1.328l2.06 1.576a.998.998 0 001.314-.087l2.829-2.829a1 1 0 00.087-1.314l-1.576-2.06a12.888 12.888 0 001.328-3.192l2.565-.342A1 1 0 0048 34v-1h1v19a1 1 0 001 1h3v3a1 1 0 001 1h8a1 1 0 001-1v-8a1 1 0 00-1-1h-8a1 1 0 00-1 1v3h-2V33h2v3a1 1 0 001 1h8a1 1 0 001-1v-8a1 1 0 00-1-1h-8a1 1 0 00-1 1v3h-2V13h2v3a1 1 0 001 1zm1-8h6v6h-6zM9 15H3V9h6zm0 20H3v-6h6zm0 20H3v-6h6zm37-21.875l-2.38.317a1 1 0 00-.847.79 10.876 10.876 0 01-1.582 3.803 1 1 0 00.041 1.157l1.463 1.913-1.59 1.59-1.913-1.463a1 1 0 00-1.157-.041 10.876 10.876 0 01-3.803 1.582 1.002 1.002 0 00-.79.847L33.125 46h-2.249l-.317-2.38a1 1 0 00-.79-.847 10.876 10.876 0 01-3.803-1.582 1.002 1.002 0 00-1.157.041l-1.913 1.463-1.59-1.59 1.463-1.913a1 1 0 00.041-1.157 10.876 10.876 0 01-1.582-3.803 1.002 1.002 0 00-.847-.79L18 33.125v-2.249l2.38-.317a1 1 0 00.847-.79 10.876 10.876 0 011.582-3.803 1 1 0 00-.041-1.157l-1.463-1.913 1.59-1.59 1.913 1.463c.337.258.802.274 1.157.041a10.876 10.876 0 013.803-1.582c.417-.086.733-.426.79-.847L30.875 18h2.249l.317 2.38a1 1 0 00.79.847c1.352.278 2.632.811 3.803 1.582a.998.998 0 001.157-.041l1.913-1.463 1.59 1.59-1.463 1.913a1 1 0 00-.041 1.157 10.876 10.876 0 011.582 3.803c.086.417.426.733.847.79l2.381.317zM55 49h6v6h-6zm0-20h6v6h-6z"/></symbol><symbol viewBox="0 0 512 512" id="interior-design" xmlns="http://www.w3.org/2000/svg"><path d="M485.89 43.45H112.95a7.5 7.5 0 000 15h372.94c6.126 0 11.11 4.984 11.11 11.11v26.22c0 6.126-4.984 11.11-11.11 11.11H26.11c-6.126 0-11.11-4.984-11.11-11.11V69.56c0-6.126 4.984-11.11 11.11-11.11h56.84a7.5 7.5 0 000-15H26.11C11.713 43.45 0 55.163 0 69.56v26.22c0 13.827 10.804 25.171 24.412 26.049-7.824 30.601-5.051 61.496 8.287 91.985a7.5 7.5 0 006.662 4.491c6.519.182 13.033.341 19.549.505-11.713 44.164-38.86 155.888-38.86 242.238a7.5 7.5 0 007.5 7.5h43.89a7.5 7.5 0 007.386-6.197c.302-1.716 30.168-169.314 69.203-241.797 36.664.51 73.528.772 110.386.772 39.108 0 78.197-.294 117.002-.868 16.046 29.787 32.987 80.507 49.143 147.228a7.504 7.504 0 009.055 5.525 7.5 7.5 0 005.524-9.055c-15.513-64.064-31.285-112.38-46.971-143.959 19.149-.327 38.235-.718 56.962-1.168 10.685 39.777 37.73 148.506 39.262 234.522H458.32c-1.938-10.391-6.286-32.927-12.461-60.546a7.5 7.5 0 00-14.639 3.273c8.43 37.703 13.414 65.799 13.463 66.078a7.5 7.5 0 007.386 6.195h43.89a7.5 7.5 0 007.5-7.5c0-86.487-27.183-198.25-38.909-242.417 4.148-.11 8.296-.215 12.444-.329a7.499 7.499 0 006.666-4.491c13.428-30.694 16.147-61.8 8.126-92.603C503.352 118.529 512 108.149 512 95.78V69.56c0-14.397-11.713-26.11-26.11-26.11zM39.936 121.89h210.745v84.419a7932.51 7932.51 0 01-106.934-.81 7840.168 7840.168 0 01-99.132-2.055c-10.852-27.113-12.42-54.5-4.679-81.554zm25.252 331.657h-30.07c1.533-85.892 28.545-194.591 39.215-234.358 18.924.439 37.994.813 56.95 1.116-15.509 31.263-31.114 78.92-46.472 141.999-10.016 41.135-17.009 77.234-19.623 91.243zm406.557-250.105c-5.7.155-11.4.307-17.101.448-24.53.608-49.747 1.116-74.949 1.508-37.805.581-75.893.883-114.013.917V121.89h210.742c7.741 27.053 6.173 54.44-4.679 81.552z"/><path d="M143.566 189.695c14.107 0 25.584-11.477 25.584-25.584s-11.477-25.584-25.584-25.584-25.584 11.477-25.584 25.584 11.477 25.584 25.584 25.584zm0-36.169c5.836 0 10.584 4.748 10.584 10.584s-4.748 10.584-10.584 10.584-10.584-4.748-10.584-10.584 4.748-10.584 10.584-10.584zm229.231-15c-14.107 0-25.584 11.477-25.584 25.584s11.477 25.584 25.584 25.584 25.584-11.477 25.584-25.584-11.477-25.584-25.584-25.584zm0 36.169c-5.836 0-10.584-4.748-10.584-10.584s4.748-10.584 10.584-10.584 10.584 4.748 10.584 10.584-4.748 10.584-10.584 10.584z"/></symbol><symbol viewBox="0 0 480.002 480.002" id="kitchen" xmlns="http://www.w3.org/2000/svg"><path d="M144.937 288.001h7.064a8 8 0 008-8v-32c0-13.255-10.745-24-24-24h-88v-168a8 8 0 00-8-8h-32a8 8 0 00-8 8v224a8 8 0 008 8h7.064L.049 423.121a8 8 0 007.952 8.88h24a8 8 0 007.952-7.12l15.248-136.88h49.68l15.2 136.88a8 8 0 007.92 7.12h24a8.001 8.001 0 007.952-8.88l-15.016-135.12zm-120.096 128h-7.904l14.264-128h7.904l-14.264 128zm110.36 0l-14.264-128h7.904l14.224 128h-7.864zm8.8-144h-128v-208h16v168a8 8 0 008 8h96a8 8 0 018 8v24zm335.952 151.12l-15.016-135.12h7.064a8 8 0 008-8v-224a8 8 0 00-8-8h-32a8 8 0 00-8 8v168h-88c-13.255 0-24 10.745-24 24v32a8 8 0 008 8h7.064l-15.016 135.12a8 8 0 007.952 8.88h24a8 8 0 007.952-7.12l15.248-136.88h49.68l15.2 136.88a8 8 0 007.92 7.12h24a8.001 8.001 0 007.952-8.88zm-135.152-7.12h-7.904l14.304-128h7.904l-14.304 128zm110.4 0l-14.264-128h7.904l14.184 128h-7.824zm8.8-144h-128v-24a8 8 0 018-8h96a8 8 0 008-8v-168h16v208z"/><path d="M360.001 184.001v-32a8 8 0 00-8-8h-224a8 8 0 00-8 8v32a8 8 0 008 8h80v232a8 8 0 008 8h48a8 8 0 008-8v-232h80a8 8 0 008-8zm-104 232h-32v-224h32v224zm88-240h-208v-16h208v16z"/></symbol><symbol viewBox="0 0 512 512" id="kitchen_1" xmlns="http://www.w3.org/2000/svg"><g data-name="Out line"><path d="M101.62 387.066c-9.226-17.302-7.072-39.644 6.066-62.909 13.792-24.422 37.792-46.622 67.58-62.509 41.64-22.211 88.386-27.835 119.094-14.326l6.443-14.644c-35.567-15.65-86.556-9.956-133.068 14.853-32.438 17.301-58.712 41.72-73.981 68.759-15.923 28.195-18.144 56.005-6.253 78.304z"/><circle cx="296" cy="200" r="8"/><circle cx="456" cy="64" r="8"/><circle cx="328" cy="216" r="8"/><path d="M454.06 24a41.666 41.666 0 00-29.658 12.284L399.917 60.77a89.767 89.767 0 00-21.577 34.91l-3.859 11.579a73.684 73.684 0 01-17.711 28.657 72.901 72.901 0 01-39.789 20.477l-20.795 3.465a158.61 158.61 0 00-27.976-5.614c-42.158-4.701-89.668 5.25-133.772 28.034-44.105 22.785-79.716 55.768-100.276 92.874-21.141 38.156-23.984 76.203-8.005 107.134a90.603 90.603 0 0015.062 21.077l13.686 15.62a153.98 153.98 0 00134.991 51.342l14.408-1.8a210.941 210.941 0 00156.986-104.66A154.034 154.034 0 00368 224.17v-9.91a65.056 65.056 0 0140.893-60.4l12.156-4.862a80.617 80.617 0 0027.21-17.942L483.716 95.6A41.942 41.942 0 00454.059 24zM48.156 282.906c19.046-34.374 52.296-65.062 93.625-86.413 34.694-17.923 71.46-27.393 105.474-27.393a172.843 172.843 0 0119.18 1.046c33.93 3.787 60.136 17.565 74.89 39.114.35.509.684 1.026 1.026 1.54a73.562 73.562 0 013.648 6.258c13.444 26.024 10.68 58.71-7.786 92.036-19.045 34.374-52.295 65.062-93.624 86.413-41.327 21.35-85.592 30.71-124.653 26.347-37.864-4.226-66.121-20.886-79.565-46.912-13.444-26.024-10.68-58.71 7.785-92.036zm299.241 73.023a194.946 194.946 0 01-145.079 96.718l-14.407 1.801a137.91 137.91 0 01-91.295-20.54 163.213 163.213 0 0021.545 3.848 188.443 188.443 0 0020.89 1.14c36.584 0 75.93-10.085 112.882-29.174 44.105-22.784 79.716-55.768 100.276-92.874a154.661 154.661 0 0013.35-31.57 137.876 137.876 0 01-18.162 70.65zM472.402 84.284l-35.456 35.456a64.71 64.71 0 01-21.84 14.402l-12.155 4.86a81.109 81.109 0 00-49.46 59.703 96.754 96.754 0 00-30.23-27.218 88.77 88.77 0 0044.822-24.257 89.767 89.767 0 0021.577-34.91l3.859-11.579a73.684 73.684 0 0117.711-28.657l24.486-24.485a25.94 25.94 0 0136.686 36.685z"/></g></symbol><symbol viewBox="-35 1 511 511.999" id="man" xmlns="http://www.w3.org/2000/svg"><path d="M271.05 180c5.52 0 10-4.48 10-10s-4.48-10-10-10c-5.53 0-10 4.48-10 10s4.47 10 10 10zm-100 0c5.52 0 10-4.48 10-10s-4.48-10-10-10c-5.53 0-10 4.48-10 10s4.47 10 10 10zm23.266 68.734c8.395 3.957 17.391 5.965 26.73 5.965 9.138 0 17.958-1.926 26.22-5.722 5.02-2.309 7.214-8.247 4.91-13.266-2.309-5.016-8.246-7.215-13.266-4.906a42.502 42.502 0 01-17.863 3.894c-6.371 0-12.496-1.363-18.203-4.054-4.996-2.356-10.957-.215-13.309 4.78a10 10 0 004.781 13.31zm0 0"/><path d="M441.59 405.77c0-54.989-62.625-98.114-116.305-100.157l-27.387-24.605C331.254 256.672 351.5 217.562 351.5 176v-66c0-60.652-49.504-110-110.352-110h-40C140.383 0 91.5 49.172 91.5 110v66c0 41.492 19.977 80.527 52.898 104.82l-27.593 24.793C63.242 307.653.5 350.668.5 405.77V502c0 5.523 4.477 10 10 10h421.09c5.523 0 10-4.477 10-10zM198.895 446h44.246l10.484 46h-65.52zM244 426h-45.738l-7.672-23.902 30.46-15.23 31.114 15.562zm-22.953-69.18l-34.75-55.59a130.176 130.176 0 0034.851 4.766c11.727 0 23.368-1.598 34.594-4.684zm14.312 14.844l48.012-76.824 25.895 23.265-32.95 74.043zM201.15 20h40c49.82 0 90.351 40.371 90.351 90v8.266l-18.777-27.04a10 10 0 00-15.364-1.288C277.031 110.727 253.496 120 221.051 120c-32.442 0-55.98-9.273-76.324-30.063a9.994 9.994 0 00-8.024-2.968 9.989 9.989 0 00-7.383 4.324l-17.82 26.113V110c0-49.629 40.215-90 89.648-90zM111.5 176v-23.113l27.773-40.7C161.523 131.113 187.816 140 221.051 140c33.27 0 59.582-8.906 81.836-27.871l28.613 41.203V176c0 59.887-48.95 110-110.352 110-61.203 0-109.648-49.957-109.648-110zm47.219 118.844l48.02 76.82-40.966 20.484-32.949-74.043zM20.5 405.77c0-41.196 50.078-76.766 93.84-80l37.414 84.066a10.002 10.002 0 0013.609 4.878l7.125-3.566 8.114 25.266L167.562 492H20.5zM421.59 492H274.137l-12.633-55.434 8.7-25.117 6.523 3.266a10.003 10.003 0 0013.609-4.88l37.414-84.065c43.762 3.238 93.84 38.804 93.84 80zm0 0"/><path d="M351.05 446h-40c-5.523 0-10 4.477-10 10s4.477 10 10 10h40c5.524 0 10-4.477 10-10s-4.476-10-10-10zm39.45 0c5.52 0 10 4.48 10 10s-4.48 10-10 10-10-4.48-10-10 4.48-10 10-10zm0 0"/></symbol><symbol viewBox="0 0 512 512" id="presentation" xmlns="http://www.w3.org/2000/svg"><path d="M496 56a8 8 0 008-8V24a8 8 0 00-8-8H16a8 8 0 00-8 8v24a8 8 0 008 8h8v336h-8a8 8 0 00-8 8v24a8 8 0 008 8h232v16a8.451 8.451 0 00.12 1.34 24 24 0 1015.76 0A8.451 8.451 0 00264 448v-16h232a8 8 0 008-8v-24a8 8 0 00-8-8h-8V56zM264 472a8 8 0 11-8-8 8.011 8.011 0 018 8zm224-56H24v-8h464zM40 392V56h432v336zM24 40v-8h464v8z"/></symbol><symbol viewBox="0 0 64 64" id="report" xmlns="http://www.w3.org/2000/svg"><path d="M61.71 13.29l-11-11A1.033 1.033 0 0050 2H25a3.009 3.009 0 00-3 3v6.05a20.973 20.973 0 000 41.9V59a3.009 3.009 0 003 3h34a3.009 3.009 0 003-3V14a1.033 1.033 0 00-.29-.71zM51 5.41L58.59 13H52a1 1 0 01-1-1zM4 32a19.023 19.023 0 0118-18.97v18.56L8.9 44.69A18.879 18.879 0 014 32zm6.31 14.1L23.41 33h18.56a18.963 18.963 0 01-31.66 13.1zM60 59a1 1 0 01-1 1H25a1 1 0 01-1-1v-6.05A21.014 21.014 0 0044 32a1 1 0 00-1-1H24V5a1 1 0 011-1h24v8a3.009 3.009 0 003 3h8z"/><path d="M27 7a1 1 0 00-1 1v20a1 1 0 001 1h20a1 1 0 001-1A21.023 21.023 0 0027 7zm1 20V9.03A19.017 19.017 0 0145.97 27zm21 13a9 9 0 109 9 9.014 9.014 0 00-9-9zm0 16a7 7 0 117-7 7.008 7.008 0 01-7 7z"/><path d="M47 50.586l-2.293-2.293-1.414 1.414 3 3a1 1 0 001.414 0l6-6-1.414-1.414zM50 19h8v2h-8zm0 6h8v2h-8zm0 6h8v2h-8z"/></symbol><symbol viewBox="0 0 512 512" id="research" xmlns="http://www.w3.org/2000/svg"><path d="M120 264h24v16h-24zm56 40h24v16h-24zm-56 0h40v16h-40zm-64 0h48v16H56zm48 40h96v16h-96zm-48 0h32v16H56zm96 40h48v16h-48zm-96 0h80v16H56zm48 40h48v16h-48zm-48 0h32v16H56z"/><path d="M480 240a8 8 0 00-8-8h-48a8 8 0 00-8 8v40h-40a8 8 0 00-8 8v40h-40a8 8 0 00-8 8v40h-40a8 8 0 00-8 8v48h-57.376a24 24 0 100 16H224v24a8.01 8.01 0 01-8 8H40a8.01 8.01 0 01-8-8V288h40a24.027 24.027 0 0024-24v-40h120a8.01 8.01 0 018 8v8h16v-8a24.027 24.027 0 00-24-24H94.627a23.844 23.844 0 00-16.97 7.03l-54.628 54.627A23.843 23.843 0 0016 286.627V472a24.027 24.027 0 0024 24h176a24.027 24.027 0 0024-24v-24h256v-16h-16zm-400-4.686V264a8.01 8.01 0 01-8 8H43.314zM192 448a8 8 0 118-8 8.01 8.01 0 01-8 8zm96-56h32v40h-32zm48-48h32v88h-32zm48-48h32v136h-32zm48 136V248h32v184zM40 216a23.994 23.994 0 0021.655-34.34l24.004-24.005A23.989 23.989 0 00118.624 144h34.752a23.995 23.995 0 0046.29-4.035l45.18-38.725a24 24 0 10-10.883-11.745l-38.274 32.806A23.983 23.983 0 00153.376 128h-34.752a23.997 23.997 0 10-44.279 18.34l-24.004 24.005A23.999 23.999 0 1040 216zM256 72a8 8 0 11-8 8 8.01 8.01 0 018-8zm-80 56a8 8 0 11-8 8 8.01 8.01 0 018-8zm-80 0a8 8 0 11-8 8 8.01 8.01 0 018-8zm-56 56a8 8 0 11-8 8 8.01 8.01 0 018-8z"/><path d="M329.565 203.12L276.687 256h-70.063a24 24 0 100 16H224v144h16V272h40a8 8 0 005.657-2.343l57.738-57.738a104.284 104.284 0 10-13.83-8.798zM184 272a8 8 0 118-8 8.01 8.01 0 01-8 8zm272.17-91.85L409.815 128h69.817a87.706 87.706 0 01-23.462 52.15zM479.632 112H400V32.367A88.144 88.144 0 01479.632 112zM384 32.367V120a7.959 7.959 0 002.027 5.31l-.006.005 58.197 65.472A87.983 87.983 0 11384 32.367z"/></symbol><symbol viewBox="0 0 511.965 511.965" id="russia" xmlns="http://www.w3.org/2000/svg"><path d="M248.116 168.084c4.259 0 5.49-2.307 12.749-9.006a8 8 0 00-10.851-11.759 533.837 533.837 0 00-7.437 6.99c-5.196 4.985-1.628 13.775 5.539 13.775z"/><path d="M380.416 121.458c-15.664-13.515-30.627-26.429-38.759-36.61 22.474-10.9 19.88-43.687-3.935-50.959V8a8 8 0 00-16 0v25.89c-23.838 7.279-26.421 40.16-3.839 51.004-10.026 12.744-31.425 30.271-50.19 46.63a8 8 0 00-.772 11.288 7.998 7.998 0 0011.287.772c21.032-18.336 40.548-34.232 51.583-47.944 7.757 9.517 19.462 20 33.406 32.084-15.482 89.063-113.979 47.745-159.8 146.725-1.56-6.872-2.338-13.594-2.338-20.234 0-21.574 11.835-45.006 36.181-71.636a8 8 0 00-11.808-10.796c-15.611 17.075-26.602 33.24-33.137 48.791l-34.795-12.97c-3.647-1.361-2.021-1.217-45.817 13.679 17.525-15.408 33.718-28.425 43.325-39.773 3.853 4.484 9.069 9.629 16.121 15.972a8 8 0 0011.298-.599 7.999 7.999 0 00-.599-11.298c-5.023-4.517-10.706-9.831-14.866-14.726 17.094-10.194 14.626-35.6-4.016-42.359v-19.527a8 8 0 00-16 0V128.5c-18.674 6.771-21.117 32.259-3.928 42.41-24.669 29.33-105.266 77.057-105.266 134.789 0 10.575 2.109 21.599 6.27 32.764 4.649 12.475 13.926 22.39 25.421 28.069v18.904c0 15.049 10.829 27.609 25.103 30.316v88.214a8 8 0 008 8l337.95-.608a8 8 0 008-8c0-33.986-16.808-70.043-45.192-69.359V408.3a8 8 0 00-16 0v30.574c-8.923 5.459-16.221 15.118-21.095 27.364-9.664-22.502-27.343-32.258-37.78-32.258-9.152 0-17.261 4.135-23.713 10.372a8 8 0 0011.121 11.503c4.032-3.898 8.269-5.929 12.592-5.875 11.924.15 26.443 25.254 28.137 45.378h-56.921c-1.839-26.047-12.57-47.304-27.508-56.481.051-.101.001 1.798.001-48.251h132.653c16.503 0 29.929-13.426 29.929-29.929v-5.571a8 8 0 00-16 0v5.571c0 7.681-6.249 13.929-13.929 13.929h-150.14c-7.681 0-13.929-6.249-13.929-13.929v-25.741h179.083c17.007 0 32.306-9.431 39.926-24.612 40.508-80.707-9.743-128.858-79.315-188.886zm-50.694-72.761c6.31 0 11.443 5.133 11.443 11.443s-5.133 11.443-11.443 11.443-11.443-5.133-11.443-11.443 5.134-11.443 11.443-11.443zm-174.776 94.401c4.155 0 7.535 3.38 7.535 7.535s-3.38 7.535-7.535 7.535-7.535-3.38-7.535-7.535 3.381-7.535 7.535-7.535zm302.319 124.955c-24.903 20.369-63.65 25.009-96.564 50.901h-61.432c42.604-59.613 118.647-41.686 143.825-109.952 9.373 14.649 15.292 29.807 15.292 45.212.404 5.743.185 9.622-1.121 13.839zm-390.701 1.211c24.373 8.94 23.449 8.802 25.418 8.802 1.892 0-3.131 1.515 62.601-20.841l31.577 11.77c.927 6.386 2.437 12.876 4.539 19.45-36.532-13.617-34.95-13.683-38.57-12.452l-60.047 20.423-33.594-12.322c2.109-4.999 4.85-9.948 8.076-14.83zm357.455-84.862c.437.246 7.121 8.152 7.252 8.486-17.931 75.499-103.906 46.922-151.112 126.066h-13.566c39.189-89.023 130.039-56.865 157.426-134.552zM54.611 316.304c-1.101-7.046-1.018-12.342-.448-16.75.013-.1.227.078 35.065 12.856 3.787 1.389.891 1.573 65.356-20.353 44.429 16.56 44.199 16.415 44.268 16.515 4.016 8.237 9.16 14.815 17.57 19.919-.098.1.772-.264-4.389 1.536-58.533-21.817-56.102-21.694-59.902-20.403l-60.047 20.423zm322.401-176.641c.1 0 20.237 17.356 34.333 31.38-20.241 80.223-119.934 40.636-162.078 147.912h-9.628c-10.918 0-20.737-6.05-25.626-15.79a156.623 156.623 0 01-2.639-5.537c37.275-109.933 142.052-64.222 165.638-157.965zm-222.429 83.929c32.972 12.29 32.646 12.091 32.696 12.191-2.544 10.721-1.906 15.494-2.171 15.744-30.112-11.223-29.371-11.593-32.978-10.367l-60.047 20.422-15.433-5.66c.049-.269 5.739-6.751 11.297-12.428.1-.021-.057-.039 1.281.451 3.784 1.389.89 1.572 65.355-20.353zm-69.14 161.843v-14.05c4.667.61 3.769.434 44.821.434a8 8 0 000-16H91.982c-13.712 0-26.227-8.129-31.938-20.479l29.183 10.704c3.787 1.389.891 1.573 65.356-20.353l54.565 20.338c3.567 1.332 5.414.063 15.574-3.481v13.272h-69.776a8 8 0 000 16h69.503v13.617c0 8.196-6.668 14.863-14.864 14.863H100.307c-8.196-.002-14.864-6.669-14.864-14.865zm93.038 110.53v-41.406c0-12.978-10.558-23.535-23.535-23.535-12.978 0-23.535 10.558-23.535 23.535v18.109a8 8 0 0016 0v-18.109c0-4.155 3.38-7.535 7.535-7.535s7.535 3.38 7.535 7.535v41.406h-51.935v-79.667h88.8v79.667zm219.077-44.462c2.087-.983 4.245-1.524 6.445-1.524 13.735 0 25.944 20.424 28.142 45.378-60.285 0-56.058-.121-56.313.22 1.853-23.28 11.788-39.38 21.726-44.074zm-113.973 43.854H227.3c2.198-24.955 14.407-45.378 28.142-45.378 13.736 0 25.945 20.423 28.143 45.378zM256.14 390.625v43.381c-20.568-.474-34.678 18.904-40.794 38.789v-57.043c13.772-2.612 24.337-14.395 25.063-28.738 5.451 2.96 10.144 3.611 15.731 3.611zm189.291-87.46c-4.888 9.739-14.708 15.79-25.626 15.79h-29.708c20.18-10.797 41.764-17.088 60.556-27.384a147.836 147.836 0 01-5.222 11.594z"/></symbol><symbol viewBox="0 0 512 512" id="skype" xmlns="http://www.w3.org/2000/svg"><path d="M426.487 85.775c-3.907-3.905-10.237-3.905-14.143 0-3.905 3.906-3.905 10.238 0 14.143l.069.068a9.91 9.91 0 007.016 2.899 9.991 9.991 0 007.084-2.942c3.906-3.905 3.879-10.263-.026-14.168z"/><path d="M498.047 304.886c-2.56-5.39-3.511-11.325-2.75-17.164a243.849 243.849 0 001.996-35.717c-.821-46.346-14.921-91.204-40.776-129.725-3.077-4.585-9.29-5.808-13.876-2.73-4.584 3.078-5.807 9.291-2.729 13.876 23.704 35.319 36.633 76.445 37.386 118.933a224.089 224.089 0 01-1.832 32.778c-1.258 9.662.303 19.458 4.516 28.329 8.099 17.054 12.142 35.35 12.016 54.38-.448 67.898-56.05 123.592-123.945 124.15-19.197.15-37.555-3.903-54.704-12.068-8.53-4.063-18.119-5.528-27.735-4.239a223.519 223.519 0 01-29.612 1.976c-122.043 0-221.332-99.29-221.332-221.333 0-9.794.653-19.674 1.941-29.363 1.288-9.676-.208-19.319-4.328-27.884-8.258-17.17-12.388-35.612-12.279-54.813.389-68.248 56.232-123.996 124.483-124.271 19.112-.12 37.482 4.052 54.581 12.272 8.831 4.245 18.609 5.828 28.268 4.575a223.84 223.84 0 0132.684-1.812c42.619.763 83.85 13.77 119.236 37.617 4.58 3.086 10.794 1.877 13.882-2.704 3.086-4.58 1.875-10.794-2.704-13.881-38.596-26.009-83.569-40.196-130.057-41.028a243.872 243.872 0 00-35.613 1.975c-5.811.752-11.699-.204-17.03-2.767C188.065 4.792 166.968 0 145.015 0l-.607.001C65.235.32.456 64.989.004 144.156c-.127 22.267 4.669 43.663 14.256 63.596 2.424 5.043 3.298 10.775 2.526 16.578a243.706 243.706 0 00-2.116 32.001c0 64.462 25.103 125.066 70.685 170.648 45.581 45.582 106.185 70.685 170.647 70.685 10.762 0 21.62-.725 32.272-2.154 5.762-.772 11.456.083 16.477 2.474C324.288 507.287 345.217 512 366.975 512c.414 0 .829-.002 1.24-.004 78.76-.647 143.26-65.253 143.781-144.018.146-22.067-4.548-43.294-13.949-63.092z"/><path d="M387.665 289.448c-22.302-52.649-77.609-64.898-131.095-76.744-8.46-1.874-17.208-3.811-25.723-5.886-8.114-1.958-26.82-7.854-25.255-20.277 1.413-11.212 18.997-26.633 44.476-26.283 24.191.434 41.837 15.693 57.404 29.156 13.224 11.436 24.653 21.314 38.193 19.654 14.639-1.787 27.505-13.024 32.016-27.962 5.558-18.4-1.981-38.137-20.697-54.161-34.901-29.775-76.851-41.314-132.037-36.319-25.682 2.306-49.59 12.107-67.319 27.598-20.243 17.688-32.339 42.347-34.979 71.28-2.758 29.206 11.074 54.878 40 74.24 29.309 19.62 64.97 27.178 83.62 29.938 30.178 4.46 53.947 14.868 57.801 25.308 1.621 4.386-.499 9.984-6.272 16.61-22.672 25.832-68.879 10.003-82.292 1.616-3.309-2.048-7.604-6.753-12.151-11.733-11.428-12.517-27.051-29.665-49.687-28.2-15.233 1.043-27.86 10.559-32.952 24.834-6.735 18.882.66 40.871 19.793 58.828 27.211 25.48 56.873 41.557 115.624 41.557 6.039 0 12.394-.17 19.074-.518h.005c42.801-2.241 84.014-25.33 104.994-58.822 14.857-23.718 17.509-49.892 7.459-73.714zm-24.407 63.097c-17.355 27.704-53.157 47.583-89.087 49.467-64.899 3.371-93.141-10.523-119.983-35.657-13.144-12.336-18.614-26.361-14.634-37.518 2.413-6.766 8.2-11.102 15.442-11.599.451-.028.899-.043 1.343-.043 12.369 0 22.468 11.063 32.248 21.772 5.511 6.038 10.718 11.741 16.356 15.23 9.222 5.767 27.682 12.912 46.42 14.972 26.008 2.857 47.259-4.187 61.491-20.402 13.66-15.677 12.967-28.612 9.98-36.703-9.616-26.046-54.701-35.368-73.638-38.167-28.901-4.277-56.392-14.035-75.421-26.773-22.765-15.238-33.267-33.991-31.21-55.771 4.967-54.452 46.739-77.445 84.181-80.808 50.146-4.539 86.308 5.21 117.246 31.604 12.586 10.776 17.752 22.558 14.546 33.175-2.221 7.351-8.51 13.064-15.296 13.893-4.79.557-14.279-7.659-22.686-14.929-16.329-14.121-38.692-33.461-70.169-34.026-15.526-.218-30.854 4.202-43.034 12.437-12.264 8.292-20.138 19.717-21.603 31.344-.93 7.392-.768 32.281 40.386 42.213 8.697 2.119 17.549 4.08 26.111 5.976 50.769 11.244 98.724 21.865 116.997 65.004 9.534 22.597 2.007 42.55-5.986 55.309zM58.602 134.065c-.066-.002-.132-.002-.198-.002-5.431 0-9.889 4.351-9.994 9.806l-.003.346c0 5.517 4.467 9.962 9.985 9.97h.015c5.502 0 9.971-4.475 10-9.976.081-5.5-4.299-10.037-9.805-10.144zm85.846-85.745h-.041c-37.151.15-71.335 22.136-87.085 56.011-2.329 5.008-.156 10.955 4.852 13.284a9.95 9.95 0 004.209.935 10 10 0 009.074-5.787c12.498-26.88 39.593-44.325 69.03-44.443 5.523-.022 9.982-4.518 9.96-10.04-.022-5.51-4.495-9.96-9.999-9.96z"/></symbol><symbol viewBox="0 0 512 512" id="stats" xmlns="http://www.w3.org/2000/svg"><path d="M504.485 496.971H455.89v-297.08a7.515 7.515 0 00-7.515-7.515h-80.156a7.515 7.515 0 00-7.515 7.515v297.08h-57.111V288.063a7.515 7.515 0 00-7.515-7.515h-80.156a7.515 7.515 0 00-7.515 7.515v208.908h-57.111v-168.83a7.515 7.515 0 00-7.515-7.515H63.625a7.515 7.515 0 00-7.515 7.515V496.97H7.515a7.515 7.515 0 100 15.03h496.97a7.515 7.515 0 100-15.029zm-368.219 0H71.139V335.656h65.127v161.315zm152.298 0h-65.127V295.578h65.127v201.393zm152.297 0h-65.127V207.406h65.127v289.565zM488.008 5.895A23.535 23.535 0 00469.502.183l-64.125 8.016c-12.73 1.591-22.036 13.54-20.443 26.283 1.609 12.877 13.39 22.054 26.284 20.444l5.232-.653c-78.705 91.256-172.272 138.418-238.39 162.12-82.441 29.555-146.608 32.083-147.233 32.104-12.963.405-23.191 11.282-22.799 24.247.388 12.804 10.721 22.833 23.526 22.833.238 0 .477-.003.722-.011 2.853-.086 70.874-2.488 160.489-34.42 50.378-17.952 97.782-41.783 140.893-70.83a7.513 7.513 0 002.032-10.431 7.513 7.513 0 00-10.431-2.033c-42.068 28.346-88.343 51.607-137.539 69.137-87.413 31.147-153.145 33.471-155.894 33.554l-.272.004a8.472 8.472 0 01-8.504-8.258c-.142-4.69 3.558-8.624 8.25-8.771.656-.021 66.654-2.443 151.832-32.978 71.359-25.581 173.893-77.814 257.126-181.378 4.144-5.156-.237-12.985-6.788-12.164l-24.112 3.014c-4.18.517-8.24-2.222-9.301-6.304-1.276-4.912 2.156-9.968 7.186-10.598l64.127-8.016c5.007-.633 9.571 3.414 9.571 8.451V87.67c0 4.696-3.82 8.517-8.517 8.517s-8.517-3.82-8.517-8.517V68.23c0-3.071-1.986-5.943-4.858-7.028-2.967-1.121-6.473-.18-8.479 2.276-28.067 34.391-60.025 65.511-94.988 92.495a7.516 7.516 0 009.183 11.899c30.455-23.505 58.685-50.066 84.137-79.141.556 12.493 10.894 22.487 23.523 22.487 12.983 0 23.546-10.563 23.546-23.546V23.547a23.562 23.562 0 00-7.963-17.652z"/></symbol><symbol viewBox="0 0 480 480" id="team" xmlns="http://www.w3.org/2000/svg"><path d="M240 0c-26.51 0-48 21.49-48 48s21.49 48 48 48c26.499-.026 47.974-21.501 48-48 0-26.51-21.49-48-48-48zm0 80c-17.673 0-32-14.327-32-32s14.327-32 32-32c17.673 0 32 14.327 32 32s-14.327 32-32 32zm32 24h-1.888l-1.688.84a63.773 63.773 0 01-56.848 0l-1.688-.84H208c-22.08.026-39.974 17.92-40 40v48c0 13.255 10.745 24 24 24h96c13.255 0 24-10.745 24-24v-48c-.026-22.08-17.92-39.974-40-40zm24 88a8 8 0 01-8 8h-96a8 8 0 01-8-8v-48c.002-12.592 9.735-23.042 22.296-23.936a80.061 80.061 0 0067.408 0c12.56.894 22.294 11.344 22.296 23.936v48zm112 72c-26.51 0-48 21.49-48 48s21.49 48 48 48 48-21.49 48-48c-.026-26.499-21.501-47.974-48-48zm0 80c-17.673 0-32-14.327-32-32 0-17.673 14.327-32 32-32 17.673 0 32 14.327 32 32 0 17.673-14.327 32-32 32zm32 24h-1.888l-1.688.8a63.78 63.78 0 01-56.848 0l-1.688-.8H376c-22.08.026-39.974 17.92-40 40v48c0 13.255 10.745 24 24 24h96c13.255 0 24-10.745 24-24v-48c-.026-22.08-17.92-39.974-40-40zm24 88a8 8 0 01-8 8h-96a8 8 0 01-8-8v-48c.002-12.592 9.735-23.042 22.296-23.936a80.061 80.061 0 0067.408 0c12.561.894 22.294 11.344 22.296 23.936v48zM72 264c-26.51 0-48 21.49-48 48s21.49 48 48 48 48-21.49 48-48c-.026-26.499-21.501-47.974-48-48zm0 80c-17.673 0-32-14.327-32-32 0-17.673 14.327-32 32-32s32 14.327 32 32c0 17.673-14.327 32-32 32zm32 24h-1.888l-1.688.8a63.78 63.78 0 01-56.848 0l-1.688-.8H40c-22.08.026-39.974 17.92-40 40v48c0 13.255 10.745 24 24 24h96c13.255 0 24-10.745 24-24v-48c-.026-22.08-17.92-39.974-40-40zm24 88a8 8 0 01-8 8H24a8 8 0 01-8-8v-48c.002-12.592 9.735-23.042 22.296-23.936a80.061 80.061 0 0067.408 0c12.561.894 22.294 11.344 22.296 23.936v48zm191.372-49.724l-.012-.028a8 8 0 00-10.495-4.224 177.456 177.456 0 01-114.104 7.856l7.488-2.2c4.242-1.242 6.674-5.686 5.432-9.928s-5.686-6.674-9.928-5.432l-32 9.384c-.12 0-.208.136-.32.176a7.928 7.928 0 00-2.064 1.144c-.278.15-.545.318-.8.504a7.75 7.75 0 00-1.96 2.72 8.012 8.012 0 00-.608 3.304c.195 1.083.462 2.152.8 3.2.048.112 0 .24.088.352l16 30.616a8.004 8.004 0 1014.192-7.408l-6.512-12.448a192.565 192.565 0 00130.552-7.104 8 8 0 004.251-10.484zm134.284-195.932a8 8 0 00-11.312 0l-11.32 11.32c-6.624-70.07-51.111-130.876-115.888-158.4a8 8 0 10-6.272 14.72c58.11 24.697 98.504 78.669 105.816 141.384l-9.024-9.024a8 8 0 00-11.312 11.312l24 24a8 8 0 0011.314.014l.014-.014 24-24a8 8 0 00-.016-11.312zM175.768 69.272a7.439 7.439 0 00-.208-1.384c0-.072-.088-.12-.12-.2-.032-.08 0-.136 0-.2a7.673 7.673 0 00-.752-1.104 8.076 8.076 0 00-.912-1.32 7.508 7.508 0 00-1.56-1.064 7.037 7.037 0 00-.896-.648l-32-14.616a8 8 0 00-6.64 14.544l16.568 7.576C86.875 104.237 47.955 169.256 48 240a8 8 0 0016 0c-.04-62.293 32.901-119.952 86.584-151.552l-5.784 12.088a8 8 0 003.736 10.664 7.876 7.876 0 003.464.8 8 8 0 007.2-4.536l16-33.384c0-.08 0-.168.064-.248a7.693 7.693 0 00.432-1.696c.137-.431.239-.872.304-1.32a7.977 7.977 0 00-.232-1.544z"/></symbol><symbol viewBox="0 0 24 24" id="telegram" xmlns="http://www.w3.org/2000/svg"><path d="M9.417 15.181l-.397 5.584c.568 0 .814-.244 1.109-.537l2.663-2.545 5.518 4.041c1.012.564 1.725.267 1.998-.931L23.93 3.821l.001-.001c.321-1.496-.541-2.081-1.527-1.714l-21.29 8.151c-1.453.564-1.431 1.374-.247 1.741l5.443 1.693L18.953 5.78c.595-.394 1.136-.176.691.218z"/></symbol><symbol viewBox="0 0 480 480" id="wallet" xmlns="http://www.w3.org/2000/svg"><path d="M472.424 79.57l-14.4-72.608a8 8 0 00-9.405-6.289l-.003.001L52.248 79.482H40a8 8 0 00-8 8v40.8c-18.647 3.768-32.041 20.176-32 39.2v272c.026 22.08 17.92 39.974 40 40h432a8 8 0 008-8v-384a8 8 0 00-7.576-7.912zm-28.552-61.64l12.224 61.552h-321.8L443.872 17.93zM22.936 150.506l.04.032a24.466 24.466 0 019.024-5.68v45.16c-.176-.056-.352-.096-.528-.16a23.523 23.523 0 01-3-1.448c-.48-.264-.992-.472-1.456-.8a24.692 24.692 0 01-4-3.136c-9.377-9.369-9.413-24.556-.08-33.968zM464 367.482H352v-64h112v64zm0-80H344a8 8 0 00-8 8v80a8 8 0 008 8h120v80H40c-13.255 0-24-10.745-24-24v-240c.36.272.76.456 1.128.712.704.496 1.432.92 2.16 1.368a40.228 40.228 0 004.176 2.224c.8.36 1.6.712 2.4 1.016a38.544 38.544 0 004.712 1.424c.744.184 1.464.416 2.216.552 2.376.452 4.789.688 7.208.704h424v80zm-263.432-96c4.394-30.614 32.773-51.87 63.388-47.476 24.61 3.532 43.944 22.867 47.476 47.476H200.568zm263.432 0H327.528c-4.546-39.504-40.255-67.843-79.759-63.297-33.245 3.826-59.472 30.052-63.297 63.297H48v-96h416v96z"/><path d="M440 111.482h-48v16h40v40h16v-48a8 8 0 00-8-8zm-368 0a8 8 0 00-8 8v48h16v-40h40v-16H72zm296 216h16v16h-16z"/></symbol><symbol viewBox="0 -8 480 480" id="water" xmlns="http://www.w3.org/2000/svg"><path d="M49.055 340C45.672 345.953 16 398.61 16 424c0 22.09 17.91 40 40 40s40-17.91 40-40c0-25.39-29.672-78.047-33.055-84-1.543-2.332-4.148-3.738-6.945-3.738s-5.402 1.406-6.945 3.738zM56 448c-13.254 0-24-10.746-24-24 0-14.145 13.902-43.91 24-63.246C66.098 380.09 80 409.855 80 424c0 13.254-10.746 24-24 24zM472 96h-48a8 8 0 00-8 8v24H308.488l-11.894-42.168A8.007 8.007 0 00288.887 80H264V48h56c13.254 0 24-10.746 24-24S333.254 0 320 0H160c-13.254 0-24 10.746-24 24s10.746 24 24 24h56v32h-24.887a8.007 8.007 0 00-7.707 5.832L171.512 128H104C46.59 128.066.066 174.59 0 232v64a8 8 0 008 8h96a8 8 0 008-8v-32c0-13.254 10.746-24 24-24h9.375c7.082 36.297 42.402 64 84.848 64h19.554c42.461 0 77.766-27.703 84.848-64H416v24a8 8 0 008 8h48a8 8 0 008-8V104a8 8 0 00-8-8zM152 24a8 8 0 018-8h160a8 8 0 010 16H160a8 8 0 01-8-8zm80 24h16v32h-16zM96 264v24H16v-56c.059-48.578 39.422-87.941 88-88h63l-22.559 80H136c-22.082.027-39.973 17.918-40 40zm153.777 24h-19.554c-38.313 0-69.559-26.938-70.215-60.266L197.168 96h85.664L320 227.734C319.336 261.062 288.09 288 249.777 288zm85.782-64L313 144h103v80zM464 256h-32V112h32zm0 0"/></symbol><symbol viewBox="0 0 24 24" id="whatsapp" xmlns="http://www.w3.org/2000/svg"><path d="M17.507 14.307l-.009.075c-2.199-1.096-2.429-1.242-2.713-.816-.197.295-.771.964-.944 1.162-.175.195-.349.21-.646.075-.3-.15-1.263-.465-2.403-1.485-.888-.795-1.484-1.77-1.66-2.07-.293-.506.32-.578.878-1.634.1-.21.049-.375-.025-.524-.075-.15-.672-1.62-.922-2.206-.24-.584-.487-.51-.672-.51-.576-.05-.997-.042-1.368.344-1.614 1.774-1.207 3.604.174 5.55 2.714 3.552 4.16 4.206 6.804 5.114.714.227 1.365.195 1.88.121.574-.091 1.767-.721 2.016-1.426.255-.705.255-1.29.18-1.425-.074-.135-.27-.21-.57-.345z"/><path d="M20.52 3.449C12.831-3.984.106 1.407.101 11.893c0 2.096.549 4.14 1.595 5.945L0 24l6.335-1.652c7.905 4.27 17.661-1.4 17.665-10.449 0-3.176-1.24-6.165-3.495-8.411zm1.482 8.417c-.006 7.633-8.385 12.4-15.012 8.504l-.36-.214-3.75.975 1.005-3.645-.239-.375c-4.124-6.565.614-15.145 8.426-15.145a9.865 9.865 0 017.021 2.91 9.788 9.788 0 012.909 6.99z"/></symbol><symbol viewBox="0 0 512.001 512.001" id="wifi" xmlns="http://www.w3.org/2000/svg"><path d="M399.28 277.601a21.608 21.608 0 00-7.191-15.454c-37.419-33.312-85.748-51.658-136.088-51.658-50.34 0-98.669 18.346-136.088 51.658-4.398 3.916-7.019 9.548-7.19 15.451a21.756 21.756 0 006.339 15.957l41.123 41.123c8.001 7.999 20.553 8.545 29.2 1.267 18.55-15.62 42.209-24.221 66.616-24.22 24.409 0 48.067 8.603 66.617 24.22 4.067 3.426 8.997 5.119 13.914 5.119 5.534-.001 11.049-2.147 15.287-6.384l41.122-41.123a21.765 21.765 0 006.339-15.956zm-62.724 41.797l-.004-.002c-22.445-18.898-51.052-29.305-80.551-29.305-29.498 0-58.107 10.409-80.519 29.29l-41.183-41.075c33.453-29.78 76.674-46.181 121.703-46.181s88.25 16.401 121.642 46.133l-41.088 41.14zm-48.365 63.61c-8.598-8.598-20.03-13.334-32.189-13.334s-23.592 4.736-32.19 13.333c-17.748 17.751-17.748 46.63.001 64.379 8.874 8.874 20.533 13.311 32.189 13.311s23.314-4.436 32.188-13.311c8.598-8.597 13.334-20.03 13.334-32.189 0-12.16-4.736-23.592-13.333-32.189zm-15.299 49.082c-9.312 9.314-24.468 9.314-33.782 0-9.315-9.315-9.315-24.47 0-33.784a23.728 23.728 0 0116.892-6.997 23.732 23.732 0 0116.892 6.998 23.732 23.732 0 016.996 16.892c0 6.38-2.485 12.38-6.998 16.891z"/><path d="M505.147 149.718C365.44 18.499 146.563 18.498 6.854 149.717c-4.326 4.062-6.758 9.561-6.852 15.486-.092 5.902 2.156 11.451 6.328 15.623l41.041 41.041c8.26 8.26 21.425 8.519 29.971.592 48.605-45.098 112.053-69.935 178.659-69.935 66.604 0 130.053 24.837 178.658 69.935a21.49 21.49 0 0014.668 5.781c5.534 0 11.065-2.133 15.304-6.372l41.041-41.041c4.173-4.172 6.42-9.721 6.328-15.623-.095-5.924-2.527-11.424-6.853-15.486zm-55.772 56.883c-52.619-48.824-121.293-75.711-193.373-75.711-72.081 0-140.755 26.888-193.332 75.679l-41.005-41.082c131.406-123.42 337.27-123.416 468.673.001l.036.041-40.999 41.072z"/></symbol></svg>