<?xml version="1.0" encoding="utf-8"?><svg xmlns="http://www.w3.org/2000/svg" xmlns:xlink="http://www.w3.org/1999/xlink"><symbol viewBox="0 0 64 64" id="infrastructure" xmlns="http://www.w3.org/2000/svg"><path d="M32 23c-4.962 0-9 4.038-9 9s4.038 9 9 9 9-4.038 9-9-4.038-9-9-9zm0 16c-3.86 0-7-3.14-7-7s3.14-7 7-7 7 3.14 7 7-3.14 7-7 7z"/><path d="M54 17h8a1 1 0 001-1V8a1 1 0 00-1-1h-8a1 1 0 00-1 1v3h-3a1 1 0 00-1 1v19h-1v-1a1 1 0 00-.868-.991l-2.565-.342a12.812 12.812 0 00-1.328-3.192l1.576-2.06a1 1 0 00-.087-1.314l-2.829-2.829a.998.998 0 00-1.314-.087l-2.06 1.576a12.888 12.888 0 00-3.192-1.328l-.342-2.565A1 1 0 0034 16h-4a1 1 0 00-.991.868l-.342 2.565c-1.116.295-2.185.74-3.192 1.328l-2.06-1.576a1 1 0 00-1.314.087l-2.829 2.829a1 1 0 00-.087 1.314l1.576 2.06a12.888 12.888 0 00-1.328 3.192l-2.565.342A1 1 0 0016 30v1h-1V12a1 1 0 00-1-1h-3V8a1 1 0 00-1-1H2a1 1 0 00-1 1v8a1 1 0 001 1h8a1 1 0 001-1v-3h2v18h-2v-3a1 1 0 00-1-1H2a1 1 0 00-1 1v8a1 1 0 001 1h8a1 1 0 001-1v-3h2v18h-2v-3a1 1 0 00-1-1H2a1 1 0 00-1 1v8a1 1 0 001 1h8a1 1 0 001-1v-3h3a1 1 0 001-1V33h1v1a1 1 0 00.868.991l2.565.342c.295 1.116.74 2.185 1.328 3.192l-1.576 2.06a1 1 0 00.087 1.314l2.829 2.829a1 1 0 001.314.087l2.06-1.576a12.888 12.888 0 003.192 1.328l.342 2.565A1 1 0 0030 48h4a1 1 0 00.991-.868l.342-2.565a12.812 12.812 0 003.192-1.328l2.06 1.576a.998.998 0 001.314-.087l2.829-2.829a1 1 0 00.087-1.314l-1.576-2.06a12.888 12.888 0 001.328-3.192l2.565-.342A1 1 0 0048 34v-1h1v19a1 1 0 001 1h3v3a1 1 0 001 1h8a1 1 0 001-1v-8a1 1 0 00-1-1h-8a1 1 0 00-1 1v3h-2V33h2v3a1 1 0 001 1h8a1 1 0 001-1v-8a1 1 0 00-1-1h-8a1 1 0 00-1 1v3h-2V13h2v3a1 1 0 001 1zm1-8h6v6h-6zM9 15H3V9h6zm0 20H3v-6h6zm0 20H3v-6h6zm37-21.875l-2.38.317a1 1 0 00-.847.79 10.876 10.876 0 01-1.582 3.803 1 1 0 00.041 1.157l1.463 1.913-1.59 1.59-1.913-1.463a1 1 0 00-1.157-.041 10.876 10.876 0 01-3.803 1.582 1.002 1.002 0 00-.79.847L33.125 46h-2.249l-.317-2.38a1 1 0 00-.79-.847 10.876 10.876 0 01-3.803-1.582 1.002 1.002 0 00-1.157.041l-1.913 1.463-1.59-1.59 1.463-1.913a1 1 0 00.041-1.157 10.876 10.876 0 01-1.582-3.803 1.002 1.002 0 00-.847-.79L18 33.125v-2.249l2.38-.317a1 1 0 00.847-.79 10.876 10.876 0 011.582-3.803 1 1 0 00-.041-1.157l-1.463-1.913 1.59-1.59 1.913 1.463c.337.258.802.274 1.157.041a10.876 10.876 0 013.803-1.582c.417-.086.733-.426.79-.847L30.875 18h2.249l.317 2.38a1 1 0 00.79.847c1.352.278 2.632.811 3.803 1.582a.998.998 0 001.157-.041l1.913-1.463 1.59 1.59-1.463 1.913a1 1 0 00-.041 1.157 10.876 10.876 0 011.582 3.803c.086.417.426.733.847.79l2.381.317zM55 49h6v6h-6zm0-20h6v6h-6z"/></symbol><symbol viewBox="0 0 64 64" id="report" xmlns="http://www.w3.org/2000/svg"><path d="M61.71 13.29l-11-11A1.033 1.033 0 0050 2H25a3.009 3.009 0 00-3 3v6.05a20.973 20.973 0 000 41.9V59a3.009 3.009 0 003 3h34a3.009 3.009 0 003-3V14a1.033 1.033 0 00-.29-.71zM51 5.41L58.59 13H52a1 1 0 01-1-1zM4 32a19.023 19.023 0 0118-18.97v18.56L8.9 44.69A18.879 18.879 0 014 32zm6.31 14.1L23.41 33h18.56a18.963 18.963 0 01-31.66 13.1zM60 59a1 1 0 01-1 1H25a1 1 0 01-1-1v-6.05A21.014 21.014 0 0044 32a1 1 0 00-1-1H24V5a1 1 0 011-1h24v8a3.009 3.009 0 003 3h8z"/><path d="M27 7a1 1 0 00-1 1v20a1 1 0 001 1h20a1 1 0 001-1A21.023 21.023 0 0027 7zm1 20V9.03A19.017 19.017 0 0145.97 27zm21 13a9 9 0 109 9 9.014 9.014 0 00-9-9zm0 16a7 7 0 117-7 7.008 7.008 0 01-7 7z"/><path d="M47 50.586l-2.293-2.293-1.414 1.414 3 3a1 1 0 001.414 0l6-6-1.414-1.414zM50 19h8v2h-8zm0 6h8v2h-8zm0 6h8v2h-8z"/></symbol><symbol viewBox="0 0 512 512" id="research" xmlns="http://www.w3.org/2000/svg"><path d="M120 264h24v16h-24zm56 40h24v16h-24zm-56 0h40v16h-40zm-64 0h48v16H56zm48 40h96v16h-96zm-48 0h32v16H56zm96 40h48v16h-48zm-96 0h80v16H56zm48 40h48v16h-48zm-48 0h32v16H56z"/><path d="M480 240a8 8 0 00-8-8h-48a8 8 0 00-8 8v40h-40a8 8 0 00-8 8v40h-40a8 8 0 00-8 8v40h-40a8 8 0 00-8 8v48h-57.376a24 24 0 100 16H224v24a8.01 8.01 0 01-8 8H40a8.01 8.01 0 01-8-8V288h40a24.027 24.027 0 0024-24v-40h120a8.01 8.01 0 018 8v8h16v-8a24.027 24.027 0 00-24-24H94.627a23.844 23.844 0 00-16.97 7.03l-54.628 54.627A23.843 23.843 0 0016 286.627V472a24.027 24.027 0 0024 24h176a24.027 24.027 0 0024-24v-24h256v-16h-16zm-400-4.686V264a8.01 8.01 0 01-8 8H43.314zM192 448a8 8 0 118-8 8.01 8.01 0 01-8 8zm96-56h32v40h-32zm48-48h32v88h-32zm48-48h32v136h-32zm48 136V248h32v184zM40 216a23.994 23.994 0 0021.655-34.34l24.004-24.005A23.989 23.989 0 00118.624 144h34.752a23.995 23.995 0 0046.29-4.035l45.18-38.725a24 24 0 10-10.883-11.745l-38.274 32.806A23.983 23.983 0 00153.376 128h-34.752a23.997 23.997 0 10-44.279 18.34l-24.004 24.005A23.999 23.999 0 1040 216zM256 72a8 8 0 11-8 8 8.01 8.01 0 018-8zm-80 56a8 8 0 11-8 8 8.01 8.01 0 018-8zm-80 0a8 8 0 11-8 8 8.01 8.01 0 018-8zm-56 56a8 8 0 11-8 8 8.01 8.01 0 018-8z"/><path d="M329.565 203.12L276.687 256h-70.063a24 24 0 100 16H224v144h16V272h40a8 8 0 005.657-2.343l57.738-57.738a104.284 104.284 0 10-13.83-8.798zM184 272a8 8 0 118-8 8.01 8.01 0 01-8 8zm272.17-91.85L409.815 128h69.817a87.706 87.706 0 01-23.462 52.15zM479.632 112H400V32.367A88.144 88.144 0 01479.632 112zM384 32.367V120a7.959 7.959 0 002.027 5.31l-.006.005 58.197 65.472A87.983 87.983 0 11384 32.367z"/></symbol><symbol viewBox="0 0 512 512" id="stats" xmlns="http://www.w3.org/2000/svg"><path d="M504.485 496.971H455.89v-297.08a7.515 7.515 0 00-7.515-7.515h-80.156a7.515 7.515 0 00-7.515 7.515v297.08h-57.111V288.063a7.515 7.515 0 00-7.515-7.515h-80.156a7.515 7.515 0 00-7.515 7.515v208.908h-57.111v-168.83a7.515 7.515 0 00-7.515-7.515H63.625a7.515 7.515 0 00-7.515 7.515V496.97H7.515a7.515 7.515 0 100 15.03h496.97a7.515 7.515 0 100-15.029zm-368.219 0H71.139V335.656h65.127v161.315zm152.298 0h-65.127V295.578h65.127v201.393zm152.297 0h-65.127V207.406h65.127v289.565zM488.008 5.895A23.535 23.535 0 00469.502.183l-64.125 8.016c-12.73 1.591-22.036 13.54-20.443 26.283 1.609 12.877 13.39 22.054 26.284 20.444l5.232-.653c-78.705 91.256-172.272 138.418-238.39 162.12-82.441 29.555-146.608 32.083-147.233 32.104-12.963.405-23.191 11.282-22.799 24.247.388 12.804 10.721 22.833 23.526 22.833.238 0 .477-.003.722-.011 2.853-.086 70.874-2.488 160.489-34.42 50.378-17.952 97.782-41.783 140.893-70.83a7.513 7.513 0 002.032-10.431 7.513 7.513 0 00-10.431-2.033c-42.068 28.346-88.343 51.607-137.539 69.137-87.413 31.147-153.145 33.471-155.894 33.554l-.272.004a8.472 8.472 0 01-8.504-8.258c-.142-4.69 3.558-8.624 8.25-8.771.656-.021 66.654-2.443 151.832-32.978 71.359-25.581 173.893-77.814 257.126-181.378 4.144-5.156-.237-12.985-6.788-12.164l-24.112 3.014c-4.18.517-8.24-2.222-9.301-6.304-1.276-4.912 2.156-9.968 7.186-10.598l64.127-8.016c5.007-.633 9.571 3.414 9.571 8.451V87.67c0 4.696-3.82 8.517-8.517 8.517s-8.517-3.82-8.517-8.517V68.23c0-3.071-1.986-5.943-4.858-7.028-2.967-1.121-6.473-.18-8.479 2.276-28.067 34.391-60.025 65.511-94.988 92.495a7.516 7.516 0 009.183 11.899c30.455-23.505 58.685-50.066 84.137-79.141.556 12.493 10.894 22.487 23.523 22.487 12.983 0 23.546-10.563 23.546-23.546V23.547a23.562 23.562 0 00-7.963-17.652z"/></symbol><symbol viewBox="0 0 480 480" id="team" xmlns="http://www.w3.org/2000/svg"><path d="M240 0c-26.51 0-48 21.49-48 48s21.49 48 48 48c26.499-.026 47.974-21.501 48-48 0-26.51-21.49-48-48-48zm0 80c-17.673 0-32-14.327-32-32s14.327-32 32-32c17.673 0 32 14.327 32 32s-14.327 32-32 32zm32 24h-1.888l-1.688.84a63.773 63.773 0 01-56.848 0l-1.688-.84H208c-22.08.026-39.974 17.92-40 40v48c0 13.255 10.745 24 24 24h96c13.255 0 24-10.745 24-24v-48c-.026-22.08-17.92-39.974-40-40zm24 88a8 8 0 01-8 8h-96a8 8 0 01-8-8v-48c.002-12.592 9.735-23.042 22.296-23.936a80.061 80.061 0 0067.408 0c12.56.894 22.294 11.344 22.296 23.936v48zm112 72c-26.51 0-48 21.49-48 48s21.49 48 48 48 48-21.49 48-48c-.026-26.499-21.501-47.974-48-48zm0 80c-17.673 0-32-14.327-32-32 0-17.673 14.327-32 32-32 17.673 0 32 14.327 32 32 0 17.673-14.327 32-32 32zm32 24h-1.888l-1.688.8a63.78 63.78 0 01-56.848 0l-1.688-.8H376c-22.08.026-39.974 17.92-40 40v48c0 13.255 10.745 24 24 24h96c13.255 0 24-10.745 24-24v-48c-.026-22.08-17.92-39.974-40-40zm24 88a8 8 0 01-8 8h-96a8 8 0 01-8-8v-48c.002-12.592 9.735-23.042 22.296-23.936a80.061 80.061 0 0067.408 0c12.561.894 22.294 11.344 22.296 23.936v48zM72 264c-26.51 0-48 21.49-48 48s21.49 48 48 48 48-21.49 48-48c-.026-26.499-21.501-47.974-48-48zm0 80c-17.673 0-32-14.327-32-32 0-17.673 14.327-32 32-32s32 14.327 32 32c0 17.673-14.327 32-32 32zm32 24h-1.888l-1.688.8a63.78 63.78 0 01-56.848 0l-1.688-.8H40c-22.08.026-39.974 17.92-40 40v48c0 13.255 10.745 24 24 24h96c13.255 0 24-10.745 24-24v-48c-.026-22.08-17.92-39.974-40-40zm24 88a8 8 0 01-8 8H24a8 8 0 01-8-8v-48c.002-12.592 9.735-23.042 22.296-23.936a80.061 80.061 0 0067.408 0c12.561.894 22.294 11.344 22.296 23.936v48zm191.372-49.724l-.012-.028a8 8 0 00-10.495-4.224 177.456 177.456 0 01-114.104 7.856l7.488-2.2c4.242-1.242 6.674-5.686 5.432-9.928s-5.686-6.674-9.928-5.432l-32 9.384c-.12 0-.208.136-.32.176a7.928 7.928 0 00-2.064 1.144c-.278.15-.545.318-.8.504a7.75 7.75 0 00-1.96 2.72 8.012 8.012 0 00-.608 3.304c.195 1.083.462 2.152.8 3.2.048.112 0 .24.088.352l16 30.616a8.004 8.004 0 1014.192-7.408l-6.512-12.448a192.565 192.565 0 00130.552-7.104 8 8 0 004.251-10.484zm134.284-195.932a8 8 0 00-11.312 0l-11.32 11.32c-6.624-70.07-51.111-130.876-115.888-158.4a8 8 0 10-6.272 14.72c58.11 24.697 98.504 78.669 105.816 141.384l-9.024-9.024a8 8 0 00-11.312 11.312l24 24a8 8 0 0011.314.014l.014-.014 24-24a8 8 0 00-.016-11.312zM175.768 69.272a7.439 7.439 0 00-.208-1.384c0-.072-.088-.12-.12-.2-.032-.08 0-.136 0-.2a7.673 7.673 0 00-.752-1.104 8.076 8.076 0 00-.912-1.32 7.508 7.508 0 00-1.56-1.064 7.037 7.037 0 00-.896-.648l-32-14.616a8 8 0 00-6.64 14.544l16.568 7.576C86.875 104.237 47.955 169.256 48 240a8 8 0 0016 0c-.04-62.293 32.901-119.952 86.584-151.552l-5.784 12.088a8 8 0 003.736 10.664 7.876 7.876 0 003.464.8 8 8 0 007.2-4.536l16-33.384c0-.08 0-.168.064-.248a7.693 7.693 0 00.432-1.696c.137-.431.239-.872.304-1.32a7.977 7.977 0 00-.232-1.544z"/></symbol><symbol viewBox="0 0 480 480" id="wallet" xmlns="http://www.w3.org/2000/svg"><path d="M472.424 79.57l-14.4-72.608a8 8 0 00-9.405-6.289l-.003.001L52.248 79.482H40a8 8 0 00-8 8v40.8c-18.647 3.768-32.041 20.176-32 39.2v272c.026 22.08 17.92 39.974 40 40h432a8 8 0 008-8v-384a8 8 0 00-7.576-7.912zm-28.552-61.64l12.224 61.552h-321.8L443.872 17.93zM22.936 150.506l.04.032a24.466 24.466 0 019.024-5.68v45.16c-.176-.056-.352-.096-.528-.16a23.523 23.523 0 01-3-1.448c-.48-.264-.992-.472-1.456-.8a24.692 24.692 0 01-4-3.136c-9.377-9.369-9.413-24.556-.08-33.968zM464 367.482H352v-64h112v64zm0-80H344a8 8 0 00-8 8v80a8 8 0 008 8h120v80H40c-13.255 0-24-10.745-24-24v-240c.36.272.76.456 1.128.712.704.496 1.432.92 2.16 1.368a40.228 40.228 0 004.176 2.224c.8.36 1.6.712 2.4 1.016a38.544 38.544 0 004.712 1.424c.744.184 1.464.416 2.216.552 2.376.452 4.789.688 7.208.704h424v80zm-263.432-96c4.394-30.614 32.773-51.87 63.388-47.476 24.61 3.532 43.944 22.867 47.476 47.476H200.568zm263.432 0H327.528c-4.546-39.504-40.255-67.843-79.759-63.297-33.245 3.826-59.472 30.052-63.297 63.297H48v-96h416v96z"/><path d="M440 111.482h-48v16h40v40h16v-48a8 8 0 00-8-8zm-368 0a8 8 0 00-8 8v48h16v-40h40v-16H72zm296 216h16v16h-16z"/></symbol></svg>